<svg width="26" height="31" viewBox="0 0 26 31" fill="none" xmlns="http://www.w3.org/2000/svg">
<path d="M13 31C12.1644 31 11.4481 30.6968 10.8512 30.0904C10.2544 29.484 9.95592 28.7684 9.95592 27.9437H16.0441C16.0441 28.7684 15.7456 29.484 15.1488 30.0904C14.5519 30.6968 13.8356 31 13 31ZM22.9201 21.6854L26 24.8146V26.3427H0V24.8146L3.07989 21.6854V13.1714C3.07989 10.7942 3.79614 8.69601 5.22865 6.87676C6.66116 5.05751 8.47567 3.88106 10.6722 3.34742V2.32864C10.6722 1.64945 10.899 1.09155 11.3526 0.65493C11.8062 0.21831 12.3554 0 13 0C13.6446 0 14.1818 0.21831 14.6116 0.65493C15.0413 1.09155 15.2562 1.64945 15.2562 2.32864V3.34742C17.5005 3.88106 19.3388 5.05751 20.7713 6.87676C22.2039 8.69601 22.9201 10.7942 22.9201 13.1714V21.6854Z" fill="#C2C2C2"/>
</svg>
