<svg width="17" height="31" viewBox="0 0 17 31" fill="none" xmlns="http://www.w3.org/2000/svg">
<path d="M9.01 13.6056C5.151 12.5894 3.91 11.5389 3.91 9.90278C3.91 8.02556 5.627 6.71667 8.5 6.71667C10.914 6.71667 12.121 7.64667 12.563 9.12778C12.767 9.81667 13.328 10.3333 14.042 10.3333H14.552C15.674 10.3333 16.473 9.21389 16.082 8.14611C15.368 6.11389 13.702 4.42611 11.05 3.77167V2.58333C11.05 1.15389 9.911 0 8.5 0C7.089 0 5.95 1.15389 5.95 2.58333V3.72C2.652 4.44333 0 6.61333 0 9.93722C0 13.9156 3.247 15.8961 7.99 17.05C12.24 18.0833 13.09 19.5989 13.09 21.2006C13.09 22.3889 12.257 24.2833 8.5 24.2833C5.695 24.2833 4.25 23.2672 3.689 21.8206C3.434 21.1489 2.856 20.6667 2.159 20.6667H1.683C0.544 20.6667 -0.255 21.8378 0.17 22.9056C1.139 25.2994 3.4 26.7117 5.95 27.2628V28.4167C5.95 29.8461 7.089 31 8.5 31C9.911 31 11.05 29.8461 11.05 28.4167V27.2972C14.365 26.66 17 24.7139 17 21.1833C17 16.2922 12.869 14.6217 9.01 13.6056Z" fill="white" fill-opacity="0.65"/>
</svg>
