<svg width="30" height="30" viewBox="0 0 30 30" fill="none" xmlns="http://www.w3.org/2000/svg">
<path d="M26.2822 16.485L26.2671 16.515C26.3278 16.02 26.3885 15.51 26.3885 15C26.3885 14.49 26.3429 14.01 26.2822 13.515L26.2974 13.545L30 10.665L26.3126 4.335L21.9575 6.075L21.9727 6.09C21.1836 5.49 20.3187 4.98 19.3778 4.59H19.393L18.695 0H11.305L10.6373 4.605H10.6525C9.71169 4.995 8.84674 5.505 8.05766 6.105L8.07284 6.09L3.70258 4.335L0 10.665L3.70258 13.545L3.71775 13.515C3.65706 14.01 3.61153 14.49 3.61153 15C3.61153 15.51 3.65706 16.02 3.73293 16.515L3.71775 16.485L0.531108 18.96L0.0303493 19.35L3.71775 25.65L8.08801 23.925L8.05766 23.865C8.86191 24.48 9.72686 24.99 10.6829 25.38H10.6373L11.3202 30H18.6798C18.6798 30 18.7253 29.73 18.7709 29.37L19.3475 25.395H19.3323C20.2731 25.005 21.1533 24.495 21.9575 23.88L21.9272 23.94L26.2974 25.665L29.9848 19.365C29.9848 19.365 29.7724 19.185 29.4841 18.975L26.2822 16.485V16.485ZM14.9924 20.25C12.0637 20.25 9.68134 17.895 9.68134 15C9.68134 12.105 12.0637 9.75 14.9924 9.75C17.9211 9.75 20.3035 12.105 20.3035 15C20.3035 17.895 17.9211 20.25 14.9924 20.25Z" fill="#C2C2C2"/>
</svg>
