<svg width="27" height="36" viewBox="0 0 27 36" fill="none" xmlns="http://www.w3.org/2000/svg">
<path d="M26.5 22.733C26.5 22.7325 26.5 22.732 26.5 22.7315L26.5 22.7007C26.5 22.7005 26.5 22.7002 26.5 22.7C26.5066 19.9962 25.6263 17.3634 23.9911 15.1908L14.8992 1.25251L14.8992 1.25246L14.8939 1.24469L14.8924 1.24246C14.7402 1.01321 14.5327 0.825852 14.2896 0.696564C14.0454 0.566749 13.7726 0.499359 13.496 0.500005C13.2194 0.50065 12.9469 0.569313 12.7034 0.700274C12.4598 0.831261 12.2525 1.02066 12.1012 1.25198L12.1008 1.25251L3.01446 15.1822C1.43448 17.2839 0.5 19.8854 0.5 22.6995V22.7315C0.5 29.781 6.34048 35.5 13.5 35.5C20.659 35.5 26.4991 29.7818 26.5 22.733ZM5.77781 17.0135L13.5 5.17387L21.2222 17.0135L21.2285 17.0232L21.2353 17.0327L21.28 17.0947L21.2803 17.0951L21.2809 17.0947C22.4702 18.6622 23.1731 20.6019 23.1731 22.7041V22.7315C23.1731 27.952 18.842 32.2162 13.5 32.2162C8.15795 32.2162 3.82688 27.952 3.82688 22.7315L3.82688 22.7041L3.82687 22.7028C3.82178 20.687 4.48274 18.7229 5.71212 17.1053L5.71224 17.1054L5.71967 17.0951L5.76465 17.0326L5.77145 17.0232L5.77781 17.0135Z" fill="#BBE6E8" stroke="#BBE6E8"/>
</svg>
