<svg width="35" height="40" viewBox="0 0 35 40" fill="none" xmlns="http://www.w3.org/2000/svg">
<path d="M16.5281 0.00504173C7.38939 0.00504173 0.000637961 5.68854 0.000637961 12.635C0.000637961 15.161 0.972843 17.4765 2.72281 19.5815C0.92987 22.1173 -0.0283286 25.2293 0.000637961 28.4225V35.79C0.000637961 38.1055 1.75061 40 3.88946 40H29.1668C30.1982 40 31.1873 39.5564 31.9166 38.7669C32.6459 37.9774 33.0556 36.9066 33.0556 35.79V28.4225C33.0556 25.8965 32.4723 23.3705 31.1112 21.055L35 16.845L29.1668 10.53L25.0835 14.9505C22.2896 13.3062 19.1413 12.4979 15.9628 12.6089C12.7844 12.7199 9.69074 13.7462 7.00051 15.582C6.2678 14.8047 5.84848 13.7455 5.83387 12.635C5.83387 8.84603 10.6949 5.68854 16.5281 5.68854C19.2503 5.68854 21.9725 6.53053 23.9169 7.79353L27.8057 3.58354C24.4774 1.15997 20.5383 -0.089972 16.5281 0.00504173V0.00504173ZM16.5281 16.845C23.3335 16.845 29.1668 23.16 29.1668 28.4225V35.79H3.88946V28.4225C3.88946 23.16 9.72268 16.845 16.5281 16.845ZM17.5003 20.0025C11.6671 20.0025 7.77827 23.16 7.77827 29.475V31.58H11.6671V29.475C11.6671 27.37 11.6671 22.1075 17.5003 20.0025Z" fill="white"/>
</svg>
