<svg width="33" height="33" viewBox="0 0 33 33" fill="none" xmlns="http://www.w3.org/2000/svg">
<path d="M16.5 8.95007C15.5085 8.94727 14.5262 9.14054 13.6096 9.51876C12.6931 9.89698 11.8603 10.4527 11.1593 11.1539C10.4583 11.8551 9.90286 12.688 9.52493 13.6047C9.14699 14.5214 8.95403 15.5038 8.95714 16.4953C8.95434 17.4865 9.14755 18.4685 9.52565 19.3848C9.90375 20.301 10.4593 21.1335 11.1603 21.8343C11.8613 22.5351 12.6939 23.0904 13.6103 23.4682C14.5267 23.846 15.5088 24.0389 16.5 24.0358C17.491 24.0386 18.4728 23.8455 19.3889 23.4675C20.3051 23.0895 21.1374 22.5342 21.8382 21.8335C22.5389 21.1327 23.0943 20.3003 23.4722 19.3842C23.8502 18.4681 24.0433 17.4863 24.0405 16.4953C24.0439 15.5039 23.8513 14.5216 23.4736 13.6049C23.0959 12.6882 22.5407 11.8553 21.8399 11.1541C21.139 10.4528 20.3065 9.89705 19.39 9.5188C18.4736 9.14055 17.4914 8.94727 16.5 8.95007ZM16.5 21.3251C15.2184 21.3251 13.9894 20.816 13.0832 19.9098C12.177 19.0036 11.6679 17.7745 11.6679 16.4929C11.6679 15.2114 12.177 13.9823 13.0832 13.0761C13.9894 12.1699 15.2184 11.6608 16.5 11.6608C17.7816 11.6608 19.0106 12.1699 19.9168 13.0761C20.823 13.9823 21.3321 15.2114 21.3321 16.4929C21.3321 17.7745 20.823 19.0036 19.9168 19.9098C19.0106 20.816 17.7816 21.3251 16.5 21.3251ZM28.2857 4.71429C27.5503 3.97886 26.2044 4.12971 25.2851 5.049C24.3658 5.97064 24.2173 7.3095 24.9527 8.04729C25.6881 8.78507 27.0317 8.63657 27.9534 7.71493C28.8726 6.79564 29.0211 5.44971 28.2857 4.71429ZM5.049 25.2898C4.12736 26.2091 3.97886 27.5503 4.71429 28.2857C5.44971 29.0211 6.79329 28.875 7.71493 27.9534C8.63657 27.0317 8.78507 25.6881 8.04964 24.9527C7.31421 24.2173 5.96829 24.3681 5.049 25.2898ZM4.71429 4.71429C3.97886 5.44971 4.12736 6.79564 5.04664 7.71493C5.96829 8.63657 7.31186 8.78271 8.04729 8.04729C8.78271 7.31186 8.63421 5.96593 7.71257 5.04664C6.79564 4.12971 5.44971 3.97886 4.71429 4.71429ZM25.2851 27.9486C26.2044 28.8703 27.5479 29.0211 28.2857 28.2857C29.0235 27.5503 28.8726 26.2044 27.951 25.2827C27.0294 24.3611 25.6881 24.2149 24.9504 24.9504C24.2126 25.6858 24.3658 27.0294 25.2851 27.9486ZM16.5 4.70957C17.5395 4.70957 18.3857 3.65593 18.3857 2.35243C18.3834 1.04893 17.5395 0 16.5 0C15.4581 0 14.6119 1.04893 14.6119 2.35243C14.6119 3.65593 15.4558 4.70957 16.5 4.70957ZM16.5 33C17.5395 33 18.3857 31.9464 18.3857 30.6429C18.3857 29.3394 17.5419 28.2904 16.5024 28.2904C15.4605 28.2904 14.6143 29.3394 14.6143 30.6429C14.6119 31.9464 15.4558 33 16.5 33ZM4.71429 16.5C4.71429 15.4605 3.65357 14.6143 2.35007 14.6143C1.04657 14.6143 0 15.4605 0 16.5C0 17.5419 1.04657 18.3857 2.35007 18.3857C3.65357 18.3857 4.71429 17.5419 4.71429 16.5ZM33 16.5C33 15.4605 31.944 14.6143 30.6405 14.6143C29.337 14.6143 28.2857 15.4605 28.2857 16.5C28.2857 17.5419 29.337 18.3857 30.6405 18.3857C31.944 18.3857 33 17.5419 33 16.5Z" fill="#F3F5FF" fill-opacity="0.75"/>
</svg>
