<svg width="34" height="25" viewBox="0 0 34 25" fill="none" xmlns="http://www.w3.org/2000/svg">
<path d="M24.2173 14.2656C26.3345 15.7188 27.8182 17.6875 27.8182 20.3125V25H34V20.3125C34 16.9062 28.4827 14.8906 24.2173 14.2656ZM21.6364 12.5C25.0518 12.5 27.8182 9.70312 27.8182 6.25C27.8182 2.79688 25.0518 0 21.6364 0C20.91 0 20.23 0.15625 19.5809 0.375C20.9108 2.03784 21.6363 4.11157 21.6363 6.25C21.6363 8.38843 20.9108 10.4622 19.5809 12.125C20.23 12.3438 20.91 12.5 21.6364 12.5ZM12.3636 12.5C15.7791 12.5 18.5455 9.70312 18.5455 6.25C18.5455 2.79688 15.7791 0 12.3636 0C8.94818 0 6.18182 2.79688 6.18182 6.25C6.18182 9.70312 8.94818 12.5 12.3636 12.5ZM12.3636 3.125C14.0636 3.125 15.4545 4.53125 15.4545 6.25C15.4545 7.96875 14.0636 9.375 12.3636 9.375C10.6636 9.375 9.27273 7.96875 9.27273 6.25C9.27273 4.53125 10.6636 3.125 12.3636 3.125ZM12.3636 14.0625C8.23727 14.0625 0 16.1562 0 20.3125V25H24.7273V20.3125C24.7273 16.1562 16.49 14.0625 12.3636 14.0625ZM21.6364 21.875H3.09091V20.3281C3.4 19.2031 8.19091 17.1875 12.3636 17.1875C16.5364 17.1875 21.3273 19.2031 21.6364 20.3125V21.875Z" fill="white" fill-opacity="0.65"/>
</svg>
