<svg width="46" height="46" viewBox="0 0 46 46" fill="none" xmlns="http://www.w3.org/2000/svg">
<path d="M23.3206 0.00213693C10.3865 -0.172558 -0.172558 10.3865 0.00213693 23.3206C0.174621 35.7251 10.2749 45.8253 22.6793 45.9978C35.6156 46.1747 46.1725 35.6156 45.9956 22.6815C45.8253 10.2749 35.7251 0.174621 23.3206 0.00213693ZM37.2984 36.185C37.2544 36.2327 37.2004 36.27 37.1403 36.2945C37.0802 36.3189 37.0155 36.3298 36.9507 36.3264C36.8859 36.3231 36.8227 36.3055 36.7654 36.2749C36.7082 36.2444 36.6584 36.2016 36.6196 36.1496C35.6306 34.8557 34.4195 33.7479 33.0427 32.878C30.2277 31.0713 26.6608 30.0762 23 30.0762C19.3391 30.0762 15.7722 31.0713 12.9572 32.878C11.5805 33.7476 10.3694 34.855 9.38039 36.1485C9.34154 36.2005 9.29173 36.2433 9.2345 36.2738C9.17727 36.3044 9.11403 36.3219 9.04924 36.3253C8.98446 36.3287 8.91972 36.3178 8.85963 36.2933C8.79954 36.2689 8.74555 36.2316 8.70151 36.1839C5.45713 32.6816 3.61932 28.1052 3.54027 23.3317C3.36004 12.5724 12.1888 3.5668 22.9524 3.54027C33.7161 3.51373 42.4597 12.254 42.4597 23C42.4634 27.8886 40.6199 32.5981 37.2984 36.185Z" fill="#1D2343"/>
<path d="M23 11.6165C20.8196 11.6165 18.8482 12.4336 17.4474 13.9185C16.0465 15.4034 15.3466 17.4566 15.5047 19.6602C15.8253 24 19.1877 27.5381 23 27.5381C26.8123 27.5381 30.168 24 30.4953 19.6613C30.659 17.4788 29.9646 15.4443 28.5405 13.9318C27.1341 12.4391 25.166 11.6165 23 11.6165Z" fill="#1D2343"/>
</svg>
