<svg width="87" height="87" viewBox="0 0 87 87" fill="none" xmlns="http://www.w3.org/2000/svg">
<path d="M44.1064 0.00404158C19.6441 -0.32636 -0.32636 19.6441 0.00404158 44.1064C0.330261 67.567 19.4329 86.6696 42.8935 86.9959C67.36 87.3304 87.3263 67.36 86.9917 42.8977C86.6696 19.4329 67.567 0.330261 44.1064 0.00404158ZM70.5427 68.4369C70.4594 68.527 70.3573 68.5976 70.2436 68.6439C70.13 68.6901 70.0076 68.7107 69.885 68.7043C69.7625 68.6979 69.6429 68.6647 69.5346 68.6069C69.4264 68.5491 69.3322 68.4682 69.2587 68.37C67.3883 65.9228 65.0977 63.8276 62.4939 62.1823C57.1698 58.7653 50.4237 56.8833 43.5 56.8833C36.5762 56.8833 29.8301 58.7653 24.506 62.1823C21.9023 63.8269 19.6117 65.9214 17.7412 68.3679C17.6677 68.4661 17.5735 68.547 17.4653 68.6048C17.357 68.6626 17.2374 68.6959 17.1149 68.7022C16.9923 68.7086 16.8699 68.688 16.7563 68.6418C16.6426 68.5955 16.5405 68.5249 16.4572 68.4348C10.3211 61.8108 6.84523 53.1554 6.69572 44.1273C6.35486 23.7783 23.0527 6.74591 43.41 6.69572C63.7674 6.64553 80.3042 23.1761 80.3042 43.5C80.3112 52.7458 76.8246 61.6528 70.5427 68.4369Z" fill="white"/>
<path d="M43.5 20.0791C39.3763 20.0791 35.6478 21.6244 32.9983 24.4329C30.3488 27.2413 29.0251 31.1245 29.3241 35.2922C29.9306 43.5 36.2897 50.1916 43.5 50.1916C50.7103 50.1916 57.057 43.5 57.6759 35.2943C57.9854 31.1664 56.6722 27.3186 53.9788 24.458C51.3188 21.6349 47.5966 20.0791 43.5 20.0791Z" fill="white"/>
</svg>
