<svg width="32" height="37" viewBox="0 0 32 37" fill="none" xmlns="http://www.w3.org/2000/svg">
<path d="M3.55556 36.3338H28.4445C30.4054 36.3338 32 34.7391 32 32.7782V16.7782C32.0003 16.5447 31.9544 16.3135 31.865 16.0978C31.7756 15.8821 31.6445 15.6862 31.4791 15.5213L17.2569 1.29908C17.0919 1.13384 16.896 1.00275 16.6804 0.913311C16.4647 0.82387 16.2335 0.777832 16 0.777832C15.7665 0.777832 15.5353 0.82387 15.3197 0.913311C15.104 1.00275 14.9081 1.13384 14.7431 1.29908L0.52089 15.5213C0.35556 15.6862 0.224434 15.8821 0.135043 16.0978C0.0456525 16.3135 -0.00024025 16.5447 9.45808e-07 16.7782V32.7782C9.45808e-07 34.7391 1.59467 36.3338 3.55556 36.3338ZM12.4445 32.7782V23.8893H19.5556V32.7782H12.4445ZM3.55556 17.5142L16 5.06975L28.4445 17.5142L28.4462 32.7782H23.1111V23.8893C23.1111 21.9284 21.5165 20.3338 19.5556 20.3338H12.4445C10.4836 20.3338 8.8889 21.9284 8.8889 23.8893V32.7782H3.55556V17.5142Z" fill="white" fill-opacity="0.65"/>
</svg>
