<svg width="31" height="39" viewBox="0 0 31 39" fill="none" xmlns="http://www.w3.org/2000/svg">
<path d="M25.1875 11.7V9.75C25.1875 4.37385 20.8417 0 15.5 0C10.1583 0 5.8125 4.37385 5.8125 9.75V15.6H3.875C1.73794 15.6 0 17.3491 0 19.5V35.1C0 37.2509 1.73794 39 3.875 39H27.125C29.2621 39 31 37.2509 31 35.1V19.5C31 17.3491 29.2621 15.6 27.125 15.6H9.6875V9.75C9.6875 6.5247 12.2954 3.9 15.5 3.9C18.7046 3.9 21.3125 6.5247 21.3125 9.75V11.7H25.1875ZM27.125 19.5L27.1289 35.1H3.875V19.5H27.125Z" fill="#FFF5F5" fill-opacity="0.65"/>
</svg>
