<svg width="36" height="36" viewBox="0 0 36 36" fill="none" xmlns="http://www.w3.org/2000/svg">
<path d="M32.3989 18.2461H17.754V3.60112C17.754 3.42112 17.6067 3.27385 17.4267 3.27385H16.3631C14.2142 3.27034 12.0858 3.69175 10.1004 4.51386C8.11503 5.33596 6.31177 6.54253 4.79441 8.06414C3.30009 9.55384 2.10943 11.3197 1.28862 13.2635C0.434486 15.2796 -0.00380125 17.4474 2.48356e-05 19.6369C-0.00349398 21.7858 0.417922 23.9142 1.24003 25.8996C2.06213 27.885 3.2687 29.6882 4.79032 31.2056C6.29163 32.7069 8.04248 33.8891 9.98968 34.7114C12.0058 35.5655 14.1735 36.0038 16.3631 36C18.512 36.0035 20.6404 35.5821 22.6258 34.76C24.6112 33.9379 26.4144 32.7313 27.9318 31.2097C29.4331 29.7084 30.6153 27.9575 31.4376 26.0103C32.2917 23.9942 32.73 21.8265 32.7262 19.6369V18.5733C32.7262 18.3933 32.5789 18.2461 32.3989 18.2461ZM25.9232 29.2829C24.6565 30.5398 23.1543 31.5343 21.5025 32.2096C19.8508 32.8849 18.0821 33.2277 16.2976 33.2183C12.6937 33.2019 9.30652 31.7906 6.75797 29.242C4.19306 26.6771 2.78175 23.2654 2.78175 19.6369C2.78175 16.0084 4.19306 12.5967 6.75797 10.0318C8.99153 7.79824 11.8673 6.43602 14.9722 6.12512V21.0278H29.8749C29.5599 24.149 28.1854 27.0412 25.9232 29.2829ZM35.9988 15.9716L35.8924 14.818C35.5447 11.0504 33.8716 7.49552 31.1799 4.81198C28.4863 2.12352 24.9387 0.459676 21.1493 0.107602L19.9916 0.00124248C19.7993 -0.0151206 19.6357 0.132147 19.6357 0.324413V16.037C19.6357 16.217 19.783 16.3643 19.963 16.3643L35.6715 16.3234C35.8638 16.3234 36.0152 16.1598 35.9988 15.9716ZM22.4093 13.5908V3.09386C24.9862 3.63322 27.351 4.90941 29.2163 6.76737C31.0858 8.63276 32.3662 11.0054 32.898 13.5621L22.4093 13.5908Z" fill="#FFF5F5" fill-opacity="0.65"/>
</svg>
