<svg width="34" height="33" viewBox="0 0 34 33" fill="none" xmlns="http://www.w3.org/2000/svg">
<path d="M6.8 19.8H10.2L15.3 24.75H11.9L6.8 19.8ZM3.4 3.3H5.1V1.65C5.1 1.21239 5.27911 0.792709 5.59792 0.483274C5.91673 0.173839 6.34913 0 6.8 0H13.6C14.0509 0 14.4833 0.173839 14.8021 0.483274C15.1209 0.792709 15.3 1.21239 15.3 1.65V3.3H18.7V1.65C18.7 1.21239 18.8791 0.792709 19.1979 0.483274C19.5167 0.173839 19.9491 0 20.4 0H27.2C27.6509 0 28.0833 0.173839 28.4021 0.483274C28.7209 0.792709 28.9 1.21239 28.9 1.65V3.3H30.6C31.5017 3.3 32.3665 3.64768 33.0042 4.26655C33.6418 4.88542 34 5.72479 34 6.6V28.05C34 28.9252 33.6418 29.7646 33.0042 30.3835C32.3665 31.0023 31.5017 31.35 30.6 31.35V33H25.5V31.35H8.5V33H3.4V31.35C2.49826 31.35 1.63346 31.0023 0.995837 30.3835C0.358213 29.7646 0 28.9252 0 28.05V6.6C0 5.72479 0.358213 4.88542 0.995837 4.26655C1.63346 3.64768 2.49826 3.3 3.4 3.3V3.3ZM27.2 8.25C27.6509 8.25 28.0833 8.42384 28.4021 8.73327C28.7209 9.04271 28.9 9.46239 28.9 9.9C28.9 10.3376 28.7209 10.7573 28.4021 11.0667C28.0833 11.3762 27.6509 11.55 27.2 11.55C26.7491 11.55 26.3167 11.3762 25.9979 11.0667C25.6791 10.7573 25.5 10.3376 25.5 9.9C25.5 9.46239 25.6791 9.04271 25.9979 8.73327C26.3167 8.42384 26.7491 8.25 27.2 8.25V8.25ZM20.4 8.25C20.8509 8.25 21.2833 8.42384 21.6021 8.73327C21.9209 9.04271 22.1 9.46239 22.1 9.9C22.1 10.3376 21.9209 10.7573 21.6021 11.0667C21.2833 11.3762 20.8509 11.55 20.4 11.55C19.9491 11.55 19.5167 11.3762 19.1979 11.0667C18.8791 10.7573 18.7 10.3376 18.7 9.9C18.7 9.46239 18.8791 9.04271 19.1979 8.73327C19.5167 8.42384 19.9491 8.25 20.4 8.25V8.25ZM30.6 6.6H3.4V13.2H30.6V6.6ZM3.4 28.05H30.6V16.5H3.4V28.05ZM6.8 8.25C7.25087 8.25 7.68327 8.42384 8.00208 8.73327C8.32089 9.04271 8.5 9.46239 8.5 9.9C8.5 10.3376 8.32089 10.7573 8.00208 11.0667C7.68327 11.3762 7.25087 11.55 6.8 11.55C6.34913 11.55 5.91673 11.3762 5.59792 11.0667C5.27911 10.7573 5.1 10.3376 5.1 9.9C5.1 9.46239 5.27911 9.04271 5.59792 8.73327C5.91673 8.42384 6.34913 8.25 6.8 8.25V8.25ZM18.7 19.8H22.1L27.2 24.75H23.8L18.7 19.8Z" fill="white"/>
</svg>
