<svg width="22" height="40" viewBox="0 0 22 40" fill="none" xmlns="http://www.w3.org/2000/svg">
<path d="M12.8045 25.9636V17.2727C12.8045 16.7905 12.6118 16.328 12.2688 15.987C11.9258 15.6461 11.4607 15.4545 10.9756 15.4545C10.4906 15.4545 10.0254 15.6461 9.68239 15.987C9.3394 16.328 9.14672 16.7905 9.14672 17.2727V25.9636C8.59389 26.2809 8.13421 26.7364 7.81337 27.2851C7.49252 27.8337 7.32168 28.4562 7.31783 29.0908C7.31783 30.0552 7.7032 30.9802 8.38917 31.6621C9.07513 32.3441 10.0055 32.7272 10.9756 32.7272C11.9457 32.7272 12.8761 32.3441 13.562 31.6621C14.248 30.9802 14.6334 30.0552 14.6334 29.0908C14.6295 28.4562 14.4587 27.8337 14.1378 27.2851C13.817 26.7364 13.3573 26.2809 12.8045 25.9636ZM19.2056 21.8181V8.18179C19.2056 6.01185 18.3385 3.93078 16.7951 2.39639C15.2517 0.862008 13.1583 0 10.9756 0C8.79288 0 6.69954 0.862008 5.15612 2.39639C3.6127 3.93078 2.74561 6.01185 2.74561 8.18179V21.8181C1.48156 23.2421 0.613365 24.9695 0.226893 26.8294C-0.15958 28.6894 -0.0509324 30.6174 0.542087 32.4227C1.13511 34.2281 2.19195 35.8483 3.60808 37.123C5.02421 38.3978 6.75055 39.2829 8.61634 39.6908C9.3914 39.8664 10.1812 39.9699 10.9756 39.9999C13.0983 40.0097 15.1782 39.4073 16.9634 38.2656C18.7486 37.1239 20.1624 35.492 21.0335 33.5676C21.9045 31.6433 22.1955 29.509 21.8711 27.4236C21.5466 25.3381 20.6207 23.391 19.2056 21.8181ZM15.5478 34.6726C14.0927 35.9553 12.1846 36.6108 10.2433 36.4948C8.30201 36.3789 6.48656 35.5011 5.19632 34.0544C3.90609 32.6078 3.24675 30.7109 3.36337 28.781C3.47998 26.8511 4.36299 25.0462 5.81814 23.7636C5.99095 23.5952 6.12843 23.3944 6.22261 23.1728C6.31679 22.9512 6.3658 22.7132 6.36681 22.4727V8.18179C6.36681 6.97627 6.84852 5.82012 7.70598 4.96768C8.56344 4.11525 9.7264 3.63635 10.939 3.63635C12.1517 3.63635 13.3146 4.11525 14.1721 4.96768C15.0295 5.82012 15.5112 6.97627 15.5112 8.18179V22.6181C15.5122 22.8587 15.5613 23.0966 15.6554 23.3182C15.7496 23.5398 15.8871 23.7406 16.0599 23.909C16.8075 24.627 17.3926 25.4951 17.7762 26.4554C18.1598 27.4158 18.3332 28.4464 18.2847 29.4786C18.2363 30.5109 17.9671 31.521 17.4952 32.4416C17.0233 33.3623 16.3594 34.1725 15.5478 34.8181V34.6726Z" fill="#FFF5F5" fill-opacity="0.79"/>
</svg>
